<?xml version="1.0" encoding="UTF-8"?>
<svg id="_レイヤー_2" data-name="レイヤー 2" xmlns="http://www.w3.org/2000/svg" viewBox="0 0 271.21 177">
  <defs>
    <style>
      .cls-1, .cls-2 {
        fill: #007aff;
      }

      .cls-2 {
        font-family: 'LINESeedJP_OTF-ExtraBold-90ms-RKSJ-H', 'LINE Seed JP_OTF';
        font-size: 121.85px;
        font-weight: 700;
      }
    </style>
  </defs>
  <g id="_レイヤー_1-2" data-name="レイヤー 1">
    <g>
      <text class="cls-2" transform="translate(12.59 105.6) scale(.98) skewX(-10)"><tspan x="0" y="0">電大</tspan></text>
      <g>
        <path class="cls-1" d="M169.88,124.55c-1.2,0-2.18.98-2.18,2.15s1.02,2.18,2.18,2.18,2.15-.98,2.15-2.18-.95-2.15-2.15-2.15Z"/>
        <path class="cls-1" d="M28.35,120.59v39.96h223.06v-39.96H28.35ZM182.55,125.32c0-.47.25-.73.69-.73l21.81-.04c.44,0,.69.22.69.69v4.92c0,.44-.25.69-.69.69h-21.81c-.44,0-.69-.25-.69-.69v-4.84ZM80.64,130.71l4.41-1.02c.4-.11.69.04.87.4,1.31,2.73,2.33,6.12,2.48,9.25.04.4-.18.66-.58.76l-4.44,1.17c-.47.11-.76-.07-.8-.58-.15-2.91-1.02-6.33-2.33-9.1-.22-.44-.07-.76.4-.87ZM36.59,125.5c0-.47.25-.69.69-.69h22.54c.44,0,.69.22.69.69v4.73c0,.44-.25.69-.69.69l-22.54-.04c-.44,0-.69-.25-.69-.69v-4.7ZM64.22,139.33c0,.44-.25.69-.69.69h-10.67c-.73,6.7-3.39,12.01-12.27,14.82-.4.11-.69.04-.95-.22l-4.26-4.44c-.15-.15-.22-.33-.22-.44,0-.22.18-.4.51-.47,7.46-1.64,9.65-4.95,10.27-9.25h-12.34c-.44,0-.69-.25-.69-.69v-4.7c0-.44.25-.69.69-.69h29.93c.44,0,.69.25.69.69v4.7ZM72.38,132.13l4.22-.98c.4-.11.69,0,.87.33,1.53,2.62,2.58,5.86,2.99,9.17.04.44-.15.69-.55.8l-4.48,1.24c-.47.15-.76-.07-.8-.55-.36-3.31-1.2-6.3-2.66-9.14-.22-.44-.07-.76.4-.87ZM79.62,155.06c-.36.07-.66-.04-.91-.29l-3.93-4.44c-.15-.18-.22-.33-.22-.47,0-.22.22-.36.55-.44,11.47-1.82,15.91-7.32,16.27-19.04,0-.47.29-.69.76-.62l5.13.73c.44.07.62.33.58.76-1.09,11.94-4.88,20.79-18.24,23.81ZM113.81,155.46c-.36.11-.66,0-.91-.33l-3.97-5.24c-.11-.15-.18-.29-.18-.4,0-.25.18-.4.55-.47,10.01-1.64,17.37-7.83,19.22-17.73h-8.56c-1.64,3.97-5.17,8.19-8.56,10.38-.15.11-.29.15-.44.15-.18,0-.33-.07-.51-.22l-4.19-3.46c-.18-.15-.29-.33-.29-.47,0-.18.15-.36.4-.51,4.84-2.84,7.86-8.05,8.99-11.25.15-.36.36-.55.8-.55,5.28,0,13.25-.04,19.55-.07.47,0,.69.25.66.73-1.2,16.38-9.32,25.45-22.57,29.45ZM171.59,131.58c-1.6,11.83-8.59,20.46-22.32,23.23-.44.07-.73-.04-.91-.4l-2.8-5.35c-.25-.47-.04-.8.47-.87,14.64-2.55,17.29-10.45,18.28-14.93-6.12.07-14.78.22-20.28.29-.44,0-.69-.25-.69-.69v-5.32c0-.47.25-.69.69-.69l20.68-.04v-.11c0-2.84,2.29-5.13,5.17-5.13s5.13,2.33,5.13,5.13c0,2.26-1.42,4.19-3.42,4.88ZM187.18,155.32c-.4.04-.66-.11-.84-.44l-3.06-5.35c-.07-.15-.11-.25-.11-.36,0-.29.22-.47.62-.47,9.17-.25,15.55-3.93,16.67-9.1-5.79.04-13.36.15-19.81.25-.44,0-.69-.25-.69-.69v-5.06c0-.47.25-.69.69-.69h27.05c.44,0,.69.22.69.69-.18,12.49-7.65,20.24-21.23,21.23ZM247.1,136.06c0,.44-.22.69-.69.69h-6.01c-.55,9.03-3.9,14.78-12.89,18.06-.36.15-.69.07-.95-.22l-4.08-4.62c-.15-.15-.22-.33-.22-.44,0-.25.18-.44.51-.51,7.28-1.89,10.12-4.92,10.85-12.27l-6.81-.04v5.9c0,.44-.22.69-.69.69h-5.28c-.47,0-.69-.25-.69-.69v-5.9h-5.72c-.44,0-.69-.25-.69-.69v-4.95c0-.44.25-.69.69-.69h5.72v-5.46c0-.44.22-.69.69-.69h5.28c.47,0,.69.25.69.69v5.46h6.99v-5.5c0-.47.25-.69.69-.69h3.64l-.11-.11c-.15-.18-.22-.33-.22-.47,0-.18.15-.36.44-.47l1.42-.55c.36-.15.69-.11.95.18,1.27,1.31,2.55,3.31,3.2,4.92.18.4,0,.69-.4.87l-1.67.73c-.44.18-.73,0-.87-.44-.29-.87-.73-1.78-1.27-2.66l-.04,4.19h6.84c.47,0,.69.25.69.69v4.99ZM247.72,127.28l-1.71.66c-.4.15-.69.04-.87-.4-.58-1.42-1.71-3.31-2.8-4.59-.15-.15-.22-.33-.22-.47,0-.18.15-.36.44-.47l1.46-.58c.36-.15.66-.11.95.18,1.17,1.24,2.44,3.17,3.13,4.77.18.44.04.76-.36.91Z"/>
      </g>
    </g>
  </g>
</svg>